<?xml version="1.0" encoding="UTF-8" standalone="no"?>
<svg
   xmlns:dc="http://purl.org/dc/elements/1.1/"
   xmlns:cc="http://creativecommons.org/ns#"
   xmlns:rdf="http://www.w3.org/1999/02/22-rdf-syntax-ns#"
   xmlns:svg="http://www.w3.org/2000/svg"
   xmlns="http://www.w3.org/2000/svg"
   id="svg8"
   version="1.1"
   viewBox="0 0 132.70203 138.31111"
   height="138.31111mm"
   width="132.70203mm">
  <defs
     id="defs2" />
  <metadata
     id="metadata5">
    <rdf:RDF>
      <cc:Work
         rdf:about="">
        <dc:format>image/svg+xml</dc:format>
        <dc:type
           rdf:resource="http://purl.org/dc/dcmitype/StillImage" />
        <dc:title></dc:title>
      </cc:Work>
    </rdf:RDF>
  </metadata>
  <g
     transform="translate(-38.726364,-43.10377)"
     id="layer1">
    <g
       transform="matrix(0.26458333,0,0,0.26458333,38.657308,43.103704)"
       id="g80">
      <path
         style="fill:#ffd15c"
         d="m 501.812,481.176 c 0,6.269 -2.09,11.494 -6.269,15.673 -4.18,3.135 -8.359,5.224 -14.629,5.224 H 21.159 c -5.224,0 -10.449,-2.09 -14.629,-5.224 -4.18,-4.18 -6.269,-9.404 -6.269,-15.673 V 175.02 h 501.551 z"
         id="path10" />
      <path
         style="fill:#f8b64c"
         d="m 495.543,496.849 c -4.18,3.135 -8.359,5.224 -14.629,5.224 H 21.159 c -5.224,0 -10.449,-2.09 -14.629,-5.224 L 251.036,286.825 Z"
         id="path12" />
      <path
         style="fill:#40596b"
         d="m 501.812,175.02 -71.053,51.2 -166.139,119.119 c -8.359,6.269 -19.853,6.269 -28.212,0 L 71.314,226.22 0.261,175.02 71.314,123.82 225.959,13.061 237.453,4.702 c 8.359,-6.269 19.853,-6.269 28.212,0 l 11.494,8.359 74.188,53.29 36.571,26.122 42.841,31.347 z"
         id="path14" />
      <path
         style="fill:#f2f2f2"
         d="M 430.759,77.845 V 226.22 L 264.62,345.339 c -8.359,6.269 -19.853,6.269 -28.212,0 L 71.314,226.22 V 33.959 c 0,-11.494 9.404,-20.898 20.898,-20.898 H 364.93 Z"
         id="path16" />
      <path
         style="fill:#cdd6e0"
         d="m 365.975,61.127 c 0,9.404 7.314,16.718 16.718,16.718 h 48.065 L 365.974,13.061 Z"
         id="path18" />
      <path
         style="fill:#ff7058"
         d="m 312.686,223.086 h 16.718 c -5.224,11.494 -13.584,19.853 -25.078,26.122 -12.539,7.314 -28.212,10.449 -47.02,10.449 -17.763,0 -33.437,-3.135 -45.976,-9.404 -12.539,-6.269 -22.988,-14.629 -29.257,-27.167 -6.269,-11.494 -9.404,-25.078 -9.404,-38.661 0,-15.673 3.135,-29.257 10.449,-42.841 7.314,-13.584 16.718,-22.988 29.257,-29.257 12.539,-6.269 27.167,-9.404 42.841,-9.404 13.584,0 26.122,3.135 36.571,8.359 10.449,5.224 18.808,12.539 24.033,22.988 5.224,9.404 8.359,20.898 8.359,32.392 0,13.584 -4.18,26.122 -12.539,37.616 -10.449,14.629 -24.033,20.898 -40.751,20.898 -4.18,0 -8.359,-1.045 -10.449,-2.09 -2.09,-2.09 -4.18,-4.18 -4.18,-7.314 -6.269,6.269 -13.584,9.404 -21.943,9.404 -9.404,0 -16.718,-3.135 -21.943,-9.404 -6.269,-6.269 -9.404,-14.629 -9.404,-25.078 0,-12.539 3.135,-24.033 10.449,-35.527 8.359,-12.539 19.853,-18.808 33.437,-18.808 9.404,0 16.718,4.18 21.943,11.494 l 2.09,-9.404 h 21.943 l -12.539,58.514 c -1.045,4.18 -1.045,6.269 -1.045,7.314 0,1.045 0,2.09 1.045,3.135 1.045,1.045 1.045,1.045 2.09,1.045 2.09,0 6.269,-2.09 10.449,-5.224 5.224,-4.18 10.449,-9.404 13.584,-16.718 3.135,-7.314 5.224,-14.629 5.224,-21.943 0,-13.584 -5.224,-25.078 -14.629,-33.437 -9.404,-9.404 -22.988,-13.584 -40.751,-13.584 -14.629,0 -27.167,3.135 -37.616,9.404 -10.449,6.269 -17.763,14.629 -22.988,25.078 -5.225,10.449 -7.314,21.943 -7.314,34.482 0,11.494 3.135,21.943 8.359,31.347 6.269,9.404 13.584,16.718 24.033,20.898 10.449,4.18 21.943,6.269 35.527,6.269 12.539,0 24.033,-2.09 33.437,-5.224 9.404,-4.181 16.718,-9.405 22.988,-16.719 z m -88.817,-33.437 c 0,7.314 1.045,11.494 4.18,15.673 3.135,3.135 6.269,5.224 10.449,5.224 3.135,0 6.269,-1.045 8.359,-2.09 2.09,-1.045 4.18,-3.135 6.269,-5.224 3.135,-3.135 5.225,-8.359 7.314,-14.629 2.09,-6.269 3.135,-12.539 3.135,-17.763 0,-6.269 -1.045,-10.449 -4.18,-14.629 -3.135,-3.135 -6.269,-5.224 -10.449,-5.224 -4.18,0 -9.404,2.09 -12.539,5.224 -4.18,3.135 -7.314,8.359 -9.404,15.673 -2.089,6.271 -3.134,12.54 -3.134,17.765 z"
         id="path20" />
      <g
         id="g22">
</g>
      <g
         id="g24">
</g>
      <g
         id="g26">
</g>
      <g
         id="g28">
</g>
      <g
         id="g30">
</g>
      <g
         id="g32">
</g>
      <g
         id="g34">
</g>
      <g
         id="g36">
</g>
      <g
         id="g38">
</g>
      <g
         id="g40">
</g>
      <g
         id="g42">
</g>
      <g
         id="g44">
</g>
      <g
         id="g46">
</g>
      <g
         id="g48">
</g>
      <g
         id="g50">
</g>
    </g>
    <g
       style="fill:#00c350;fill-opacity:1"
       transform="matrix(0.74432234,0,0,0.74432234,85.725,142.71012)"
       id="g140">
      <g
         style="fill:#00c350;fill-opacity:1"
         id="g84">
	<path
   style="fill:#00c350;fill-opacity:1"
   d="M 26,0 C 11.664,0 0,11.663 0,26 0,40.337 11.664,52 26,52 40.336,52 52,40.337 52,26 52,11.663 40.336,0 26,0 Z m 14.495,17.329 -16,18 C 24.101,35.772 23.552,36 22.999,36 22.56,36 22.119,35.856 21.75,35.562 l -10,-8 c -0.862,-0.689 -1.002,-1.948 -0.312,-2.811 0.689,-0.863 1.949,-1.003 2.811,-0.313 l 8.517,6.813 14.739,-16.581 c 0.732,-0.826 1.998,-0.9 2.823,-0.166 0.826,0.735 0.901,1.999 0.167,2.825 z"
   id="path82" />

</g>
      <g
         style="fill:#00c350;fill-opacity:1"
         id="g86">
</g>
      <g
         style="fill:#00c350;fill-opacity:1"
         id="g88">
</g>
      <g
         style="fill:#00c350;fill-opacity:1"
         id="g90">
</g>
      <g
         style="fill:#00c350;fill-opacity:1"
         id="g92">
</g>
      <g
         style="fill:#00c350;fill-opacity:1"
         id="g94">
</g>
      <g
         style="fill:#00c350;fill-opacity:1"
         id="g96">
</g>
      <g
         style="fill:#00c350;fill-opacity:1"
         id="g98">
</g>
      <g
         style="fill:#00c350;fill-opacity:1"
         id="g100">
</g>
      <g
         style="fill:#00c350;fill-opacity:1"
         id="g102">
</g>
      <g
         style="fill:#00c350;fill-opacity:1"
         id="g104">
</g>
      <g
         style="fill:#00c350;fill-opacity:1"
         id="g106">
</g>
      <g
         style="fill:#00c350;fill-opacity:1"
         id="g108">
</g>
      <g
         style="fill:#00c350;fill-opacity:1"
         id="g110">
</g>
      <g
         style="fill:#00c350;fill-opacity:1"
         id="g112">
</g>
      <g
         style="fill:#00c350;fill-opacity:1"
         id="g114">
</g>
    </g>
  </g>
</svg>
